<svg xmlns="http://www.w3.org/2000/svg" xmlns:xlink="http://www.w3.org/1999/xlink" viewBox="0 0 500 500" xml:space="preserve"><g/><defs><path id="a" d="M0 0h500v500.003H0z"/></defs><clipPath id="b"><use xlink:href="#a" style="overflow:visible"/></clipPath><g style="clip-path:url(#b)"><path style="fill:none;stroke:#a0a09c;stroke-linecap:round;stroke-linejoin:round;stroke-miterlimit:10" d="m24.011 26.247 9.683-1.15 14.103-14.771M40.36 5.055l17.167 12.167 43-24.167M50.194 20.389l12.499 7.166 12.334-7.166-.834-7m10.167-6.5L56.668 24.1m11.971 0-3.779-5.813M92.027 0l9.086 14.192M29.2 31.716l-8.506 13.839-18 6.5m24.226 5.376-6.226-11.876m55.59-16.492s22.078 7.179 28.908 9.569 20.906 10.108 20.906 10.108 17.129 11.096 25.262 11.764 21.452-.015 29.307 2.034 22.448 6.877 22.448 6.877l34.028 9.821 50.142 14.403s48.773 7.832 53.896 7.49 10.587-2.364 17.076-2.036 28.378 1.924 33.997 4.2c5.619 2.275 25.427 12.521 30.891 12.863s30.291-3.758 30.291-3.758 12.057-1.706 16.497.001c4.44 1.708 34.427 3.777 34.427 3.777"/><path style="fill:none;stroke:#a0a09c;stroke-linecap:round;stroke-linejoin:round;stroke-miterlimit:10" d="M50.194 51.648s9.675-2.318 14.667-4.035 5.303-1.604 11.424-2.057 11.668-1.388 18.276-10.5m-27.811-.58-4.14 13.859M77.965 29.61l-9.326 16.818m12.704-15.715-7.276 15.003m13.47-12.975-6.659 12.246m16.325-3.102L80.334 75.732M111.2 41.156 91.316 84.802m0-31.105 11.842 5.112M85.766 80.206l11.437-23.953M86.14 64.081l11.88 6.005m18.816-26.196L95.439 88.233m-5.714-31.344-4.546-1.613-11.112 15.33m24.919-55.112 2.127 21.745s15.087-13.276 38.225-15.325 34.227.253 45.529-2.814m-84.194 13.641 11.45-6.374m21.135 8.109-9.111-4.866m3.033-5.51-6.337 11.502M94.559 47.189l-2.532-.761-17 14.656m2.678-9.029L57.986 57.73M165.423-4.445 108.958 99.57"/><path style="fill:none;stroke:#a0a09c;stroke-linecap:round;stroke-linejoin:round;stroke-miterlimit:10" d="m186.36-4.445-64.221 115.202-41.779 45.274"/><path style="fill:none;stroke:#a0a09c;stroke-linecap:round;stroke-linejoin:round;stroke-miterlimit:10" d="m173.688 18.287-12.827 2.646-44.929 84.538m23.252-61.581 7.524 3.672m9.485-44.174 17.495 10.001m-1.495-17.834 8.825 9.584m6.509-6.084 12.166 9.334m5-11.667-25.426 65.492m30.926-59.659-4.689 9.335m8.601 4.279-11.745-5.843m-34.059 50.758-.441-7.387 2-5.362m22.863-20.78 17.47 8.047 25 13.453m-53.084 5.838 22.335 8.086m3.789-27.924L192.36 58.936m-1.971-25.37 13.789 7.59m2.521 10.899-6.403-.562m29.723-28.813-9.04 18.726m7.381-44.684 58.35 98.506 66.892-54.172m-99.038 11.778-13.371-3.779"/><path style="fill:none;stroke:#a0a09c;stroke-linecap:round;stroke-linejoin:round;stroke-miterlimit:10" d="m264.17 49.652 43.857 10.853 8.5.579 83.696 18.153 52.92 15.991 51.217 14.994M283.505 43.158l-3.012 10.533m13.34-14.066-4.982 16.134"/><path style="fill:none;stroke:#a0a09c;stroke-linecap:round;stroke-linejoin:round;stroke-miterlimit:10" d="m303.212 59.313 16.884 9.162 25.597 6.747 16.667 2.5 33.649 13.161 24.329 53.725 10.355 29.614-6.944 56.975M348.193 62.214l-15.483-3.846-8.183-16.146 6.242-17.125"/><path style="fill:none;stroke:#a0a09c;stroke-linecap:round;stroke-linejoin:round;stroke-miterlimit:10" d="m371.527-4.445-19.5 49.5-11.664 56.077 39.497 24.923"/><path style="fill:none;stroke:#a0a09c;stroke-linecap:round;stroke-linejoin:round;stroke-miterlimit:10" d="m322.731-4.445 30.871 45.501 13.351 14.703 22.907 21.23"/><path style="fill:none;stroke:#a0a09c;stroke-linecap:round;stroke-linejoin:round;stroke-miterlimit:10" d="m422.941-4.445-8.081 26.359-74.497 79.218-36.21 15.636-60.682-12.149-46.362-6.099m.941-4.56-9.648-6.967-16.399-7.648 3.827-9.429m51.737 6.557-10.585 27.668m17.492-25.675-13.495 31.756"/><path style="fill:none;stroke:#a0a09c;stroke-linecap:round;stroke-linejoin:round;stroke-miterlimit:10" d="m196.892 99.57 26.521 20.826 47.849-31.359 2.056-16.417"/><path style="fill:none;stroke:#a0a09c;stroke-linecap:round;stroke-linejoin:round;stroke-miterlimit:10" d="m253.069 143.126 13.215-25.052 3.53-8.181 1.448-20.856m0 46.253-4.978-17.216m-.424 28.981-9.343-10.467m-13.634-80.335 11.681 3.836L250 75.732l22.368 4.474m-19.299 3.605 1.495-7.166"/><path style="fill:none;stroke:#a0a09c;stroke-linecap:round;stroke-linejoin:round;stroke-miterlimit:10" d="m251.054 58.936-5.689 19.53 8.451 1.471m62.372-8.582-11.041 25.076m2.26-17.965-7.374 17.178m13.763 2.09-9.643 19.034 41.799 9.287 41.476 13.633-5.393 12.504.715 7.324-9.646 11.968 1.072 15.898-3.93 2.501-10.134-2.501"/><path style="fill:none;stroke:#a0a09c;stroke-linecap:round;stroke-linejoin:round;stroke-miterlimit:10" d="m368.102 150.585 19.326-10.897 8.183 24.115-.893 10.419-7.29 16.376-14.466 1.429-2.359 3.929-10.491-4.287v-11.432l-1.858-6.015-16.767-3.65.714-24.453 3.751-20.064"/><path style="fill:none;stroke:#a0a09c;stroke-linecap:round;stroke-linejoin:round;stroke-miterlimit:10" d="m328.441 127.47-3.914 12.218 17.674 6.431 17.148.936 10.361 4.423 12.325.714"/><path style="fill:none;stroke:#a0a09c;stroke-linecap:round;stroke-linejoin:round;stroke-miterlimit:10" d="m372.962 134.933-4.86 9.578-24.556-5.586m8.757-10.782.978 12.996m11.553-8.877-2.821 10.864m-17.936-7.039-16.258-6.676m7.058 13.715 1.483-10.208m25.653 28.088-20.115-4.53-18.453-9.421-8.753 19.785 11.432 8.395"/><path style="fill:none;stroke:#a0a09c;stroke-linecap:round;stroke-linejoin:round;stroke-miterlimit:10" d="m324.527 169.519 13.825 1.965-5.261 7.071 5.261 7.041m5.194-1.25 6.157 2.322 5.181-6.61-13.397-9.486-3.135.912m-16.515-30.345-3.036-12.996-6.943.729-1.833 3.877-15.16 6.973-1.251 9.434 5.895 5.537 13.397 3.612"/><path style="fill:none;stroke:#a0a09c;stroke-linecap:round;stroke-linejoin:round;stroke-miterlimit:10" d="m319.515 145.762-8.217-1.954-7.145.977-9.83-.977m-.431 3.247-9.209 3.53-3.394 10.56-6.788 11.232.893 9.468 11.075 10.896"/><path style="fill:none;stroke:#a0a09c;stroke-linecap:round;stroke-linejoin:round;stroke-miterlimit:10" d="m268.785 163.352 6.807 7.22 18.022 6.986 9.598 9.11 47.206 21.078 4.466 1.965 9.95 25.365.734 17.228 12.499 36.592"/><path style="fill:none;stroke:#a0a09c;stroke-linecap:round;stroke-linejoin:round;stroke-miterlimit:10" d="m261.189 179.6 39.749 20.822 18.577 11.075 21.972 18.22v29.543l7.965 21.713m-88.263-86.982 29.133 17.863"/><path style="fill:none;stroke:#a0a09c;stroke-linecap:round;stroke-linejoin:round;stroke-miterlimit:10" d="m274.681 186.668-10.362 17.684 8.999 6.252m13.151-17.863-25.28 36.677 13.655-7.961m6.267 16.654-9.151-24.32"/><path style="fill:none;stroke:#a0a09c;stroke-linecap:round;stroke-linejoin:round;stroke-miterlimit:10" d="m281.111 200.515 35.01 21.342-1.429 4.823 15.898 6.375m4.287-8.819-14.73 29.475m-6.786-45.883-12.023 38.737m-3.794-17.147-5.681 13.254m16.639-19.188-10.244-4.054m16.434 13.625L308.502 250m13.017-20.582-8.158 21.379m-23.039-23.6-4.541 12.911m7.833-62.55-4.952 16.433m14.55-7.323-6.312 11.639m10.826-9.624 6.966 11.832m6.283-5.916-5.17 14.686m5.17 3.422 3.552-8.355 6.913 2.679m-.85 13.65.85-7.974h17.906l1.072-4.961m-8.931 21.971v-17.01m-10.047 6.723 29.815 6.521m-19.768 6.267 23.347 2.858 46.318-13.619 16.861 13.037"/><path style="fill:none;stroke:#a0a09c;stroke-linecap:round;stroke-linejoin:round;stroke-miterlimit:10" d="m406.533 239.814-15.387-23.133v-11.436l10.36-12.758 1.819-31.342"/><path style="fill:none;stroke:#a0a09c;stroke-linecap:round;stroke-linejoin:round;stroke-miterlimit:10" d="m389.86 227.717 5.751 15.151 26.267 16.947 37.346 16.714 45.868 15.186m-115.997-46.921-7.06-27.194m-86.269-38 5.572-14.011m-22.735 0 19.655 7.743 7.592-2.76 7.511 3.65 8.476 11.553m29.653 8.824-1.072 5.916m22.544 3.837-41.522-19.471-6.913-1.071-4.38 3.572 50.813 21.903m3.216-21.903 9.395-.714v-16.096l19.754-9.427 4.076 4.444 24.472-.714"/><path style="fill:none;stroke:#a0a09c;stroke-linecap:round;stroke-linejoin:round;stroke-miterlimit:10" d="m402.051 183.096 28.642-8.874 6.904-42.929 7.043-56.397 8.49-47.565m-24.92 167.268-26.704-2.112-2.322 23.383m26.473-.331-25.797-4.935"/><path style="fill:none;stroke:#a0a09c;stroke-linecap:round;stroke-linejoin:round;stroke-miterlimit:10" d="m402.051 181.13 14.321-8.535 3.89 8.535-2.322 12.861m-52.372 12.97-5.281 16.523 14.96-5.199 23.937-2.415 11.968 5.587m-167.799-22.821-5.023 20.794m188.373-12.469 25.604 9.824m-14.71 15.652 6.908-18.646m7.855 6.89-9.266-3.081m9.213 5.884-11.256.752m11.309-25.6-22.835-14.826 23.239-16.792 22.519-17.617-1.257-36.129M452.307 179.6l-22.782 4.21m-11.4-44.088 18.39-1.7 16.799-8.611 20.712-16.139 2.147-16.841 11.253-30.517 3.037-29.642-2.679-39.55"/><path style="fill:none;stroke:#a0a09c;stroke-linecap:round;stroke-linejoin:round;stroke-miterlimit:10" d="m414.86 21.914 75.603 12.205-15.898 18.756-5.716 6.438-15.989 33.242m.27 34.915-38.27-43.81-10.753 25.105m30.975-51.53-9.104 22.702"/><path style="fill:none;stroke:#a0a09c;stroke-linecap:round;stroke-linejoin:round;stroke-miterlimit:10" d="m417.566 26.166 17.183 7.308 16.46 4.614 29.204 7.887 8.805 2.45 15.142 2.306m.572 17.855-17.506-2.672-38.698-13.921-18.035-7.185"/><path style="fill:none;stroke:#a0a09c;stroke-linecap:round;stroke-linejoin:round;stroke-miterlimit:10" d="m465.011 41.815-1.164 5.877 24.469 9.543m6.091 50.073 5.593 40.31m-25.529-21.563 22.732-.781m-22.548 12.748 24.264 1.809m-71.329-23.86 1.028 7.633h-7.321m-32.348-6.24 20.149 2.424m2.082 4.596-7.073-.78m-6.907 10.429 13.98-3.385m-20.829-19.87 6.849.915m-7.34-23.215-4.301 13.259-1.294 9.041-6.258 14.108m-25.704-25.513-2.058 7.995-2.052 13.028-33.501-8.179 4.823-13.645m42.498.801-1.167 10.271m-4.551 1.134 11.595.915v6.381m1.561-18.187-.902 6.795m4.413-33.358-6.737 26.049m16.33-23.968-7.225 25.034m-34.967.693-5.9 13.294m149.191-38.282-30.992-9.02m32.032 6.2-27.793-9.146m-47.066-4.865 6.595 7.811-3.842 10.63 5.537 2.183 21.25-59.394-19.292-5.895m-9.33 42.587 13.279 6.191"/><path style="fill:none;stroke:#a0a09c;stroke-linecap:round;stroke-linejoin:round;stroke-miterlimit:10" d="m361.143 21.914 5.81 11.142 59.822 22.703m-66.482-7.334 6.66-15.369"/><path style="fill:none;stroke:#a0a09c;stroke-linecap:round;stroke-linejoin:round;stroke-miterlimit:10" d="m378.007 66.004 1.853-28.049 2.695-16.041 1.216-7.266 7.684-19.093m-27.206 18.474 15.611 7.885M368.146 4.139l16.585 7.529m-2.89 14.498 10.127 4.614m.962 46.875 11.535-30.363 8.487-23.348m4.064 14.505-8.545-2.177m-14.057 7.384-6.986 31.079M379.86 4.88l16.206 6.788M344.29 27.331l-5.729 15.075m-10.418-16.24 4.61-15.84 32.708.626m-34.786 43.4-13.374-1.518-2.609 7.971m-4.024 2.554-3.997 9.261 3.198 3.853m10.268-23.317 1.39-6.161m5.57.297 6.4 1.076m-5.354-13.5 6.96 1.404m-60.835-39.55-9.158 19.447-4.417 27.721-2.553 3.105m47.007-51.44-3.492 12.834 20.51 8.832"/><path style="fill:none;stroke:#a0a09c;stroke-linecap:round;stroke-linejoin:round;stroke-miterlimit:10" d="m272.724 0 22.32 9.755 2.277-14.2M234.086 6.388l7.651-5.094m6.66 2.094-4.226 10.001M253.816 0l-8.451 19.748-15.053 26.68-5.004 15.936 4.711 7.722-.662 6.903M258.14 4.624l-5.071 8.765m10.185-8.25-5.628 12.082m-41.674-9.998 9.356 6.025m7.063 1.494 8.074 5.957m234.838 128.702-14.423 37.981-8.75 13.84m52.25-40.077-12.833.91-18.732-6.101m-5.152 13.565 23.884-7.464"/><path style="fill:none;stroke:#a0a09c;stroke-linecap:round;stroke-linejoin:round;stroke-miterlimit:10" d="m497.203 147.618-1.343 36.192-4.333 12.146-5.69 11.005"/><path style="fill:none;stroke:#a0a09c;stroke-linecap:round;stroke-linejoin:round;stroke-miterlimit:10" d="m452.307 203.466 13.72.712 23.666 3.568 14.667-.785m-45.948-15.706h22.448l23.5 9.225m-42.822-14.884 8.655.179 34.167-10.093m-23.5 15.573-1.598-8.159"/><path style="fill:none;stroke:#a0a09c;stroke-linecap:round;stroke-linejoin:round;stroke-miterlimit:10" d="m504.36 195.956-11.596-3.469-4.187-12.143-1.79-7.749 17.573-2.023m-40.545 9.028 22.972-7.005m-12.316 18.66-1.676 13.097m-36.435-54.297 16.404 16.963m-57.153-34.269 9.249 22.306 18.081-4.333m-9.244-9.023-13.095 3.086"/><path style="fill:none;stroke:#a0a09c;stroke-linecap:round;stroke-linejoin:round;stroke-miterlimit:10" d="m412.759 153.162-3.661-10.38-4.908-5.453m61.837 66.849v23.019m16.922-20.468 1.773 18.845m19.638-12.502-20.048 8.14m-230.83-76.427-30.069-24.389-8.007 6.286-12.021 24.062 12.575 17.569-50.671 49.377-55.322 18.705-26.536 10.884-14.491 9.986 10.019 13.637M0 285.312l19.132-23.372 5.532-8.322 11.173-16.326 45.851-41.643 68.642-60.277 52.786-65.956"/><path style="fill:none;stroke:#a0a09c;stroke-linecap:round;stroke-linejoin:round;stroke-miterlimit:10" d="m144.81 88.233 49.773 22.524 20.823 15.925"/><path style="fill:none;stroke:#a0a09c;stroke-linecap:round;stroke-linejoin:round;stroke-miterlimit:10" d="m130.245 256.944-8.97-27.526-27.37-42.75-9.112-7.618 16.32-18.874 26.352-44.855 15.481-26.284 13.729-28.232m-3.899 31.033-19.429 28.558"/><path style="fill:none;stroke:#a0a09c;stroke-linecap:round;stroke-linejoin:round;stroke-miterlimit:10" d="m161.211 95.655-22.26 29.619-22.992 26.278m56.044-51.013L146.238 131.7m10.437 9.531 20.635-21.909 14.277 5.952"/><path style="fill:none;stroke:#a0a09c;stroke-linecap:round;stroke-linejoin:round;stroke-miterlimit:10" d="m166.331 151.552 4.506-7.744-10.383-6.589m47.388 4.603-17.288-11.546m23.056 0-19.808-15.733m10.642 32.512-15.192-10.467m-3.866 18.729 13.812 10.272v4.309l-7.611 8.657-5.227.495m37.874 37.239-.691-17.653-13.87-15.529-3.329-7.425-7.146-5.784m10.33-10.571-4.835 3.253-4.397-1.626-1.098 4.635M157.79 83.893l15.081 7.945m-61.485 30.572 7.538 7.449m-31.562-13.091 55.699 47.332 35.983 40.186 20.154 31.04m-14.172 4.989-9.779-32.329m5.663 33.675-11.983-27.516m3.076-2.997-25.765-27.837-25.504-21.95-13.595-11.442-26.293-23.237m-6.457 9.367 26.724 24.127 36.077 34.085 20.6 25.964m13.047 24.632-24.658-20.706-45.066-45.596-8.989-7.983m2.608-3.017-26.383-23.169m58.734 40.326-20.35 21.992m-2.079-31.222 18.89 13.055"/><path style="fill:none;stroke:#a0a09c;stroke-linecap:round;stroke-linejoin:round;stroke-miterlimit:10" d="m170.837 155.746-18.594 18.608-6.005 8.957-9.048 10.95-9.033 11.656-20.04 14.308m28.172-6.08-8.193 7.972 3.384 7.004m3.602-1.218 7.979 25.326m6.495-26.242 6.731 22.318 16.391 30.763 8.232 23.817m-31.354-94.038 12.435-9.516m12.928-30.433-16.428 11.434m8.214 0 17.104-11.434m-18.386 19.175 20.456-13.026m-12.191 22.257 14.92-13.592M143.061 164.1l17.393-19.137m-3.779 88.002 18.244-5.062m-11.065 11.089-1.863-7.502m45.062-43.504-13.691 12.345m11.082-2.804-9.433 8.3 12.042-1.475 11.307-11.258m-20.31 23.195 9.003-8.575 6.557 6.431 5.93-6.431 4.471 2.89m-122.453 29.24-25.274-39.287-27.606-33.374 1.516 19.485 9.594 28.871m-4.284 3.891 14.78 17.364 10.594-7.673"/><path style="fill:none;stroke:#a0a09c;stroke-linecap:round;stroke-linejoin:round;stroke-miterlimit:10" d="m92.08 243.731-25.128-34.698-13.202-19.96-18.881-15.137-21.567-15.631m51.558 82.261-5.5 3.165m9.58 13.534-22.58-29.53-30.413-21.908M0 189.073l17.14 21.531 12.06 17.299 31.55 37.706M2.101 241.661l33.736-4.369m-9.243 13.505-31.734-23.81"/><path style="fill:none;stroke:#a0a09c;stroke-linecap:round;stroke-linejoin:round;stroke-miterlimit:10" d="m-5.14 219.43 24.109-16.507 33.6-38.823M8.962 200.331 30.375 179.6M4.048 194.158l13.348-12.149m6.411-23.134L-5.14 184.712M19.669 158.4l-6.367-6.848-18.442-6.589"/><path style="fill:none;stroke:#a0a09c;stroke-linecap:round;stroke-linejoin:round;stroke-miterlimit:10" d="m-5.14 150.582 30.252-38.087 18.6-16.84m24.133-30.089L50.866 86.218l13.994 15.648 23.001-19.928m8.782 19.928L72.376 79.937"/><path style="fill:none;stroke:#a0a09c;stroke-linecap:round;stroke-linejoin:round;stroke-miterlimit:10" d="m58.399 77.055 9.446 11.982 20.016 1.27M53.54 60.505l-8.25 8.227 8.25 8.323 8.474-8.826zM-5.14 39.522l18.767-11.967m55.736 115.461-25.651-15.787-27.521 31.076m-8.398-24.006 28.311 26.39"/><path style="fill:none;stroke:#a0a09c;stroke-linecap:round;stroke-linejoin:round;stroke-miterlimit:10" d="m52.569 147.494 4.11-8.228-12.967-12.037-32.99-26.69m23.661 106.165 5.335 5.743 6.429-5.743-5.882-5.686m-2.189 4.071 4.701 4.625m-2.35 2.1 11.542 10.827m-6.953-14.927 9.475 11.716m-35.282-5.858 20.509 19.483m54.084-20.608-6.44 5.33m14.196 5.942-6.899 5.402m-11.228 18.158 11.965 19.36m2.713-24.978 8.624 21.896m-1.036-25.411 10.393 22.812m-13.425-7.729h4.068l4.16 9.178m-49.589-15.128-32.523 26.17m24.889-27.216 3.815 4.118m-62.625-2.059 20.813 9.526 3.459 4.122-24.272 20.268m2.864-8.256 11.609-19.036m-11.609 73.628h8.249l3.36 6.042 76.374-54.418m6.373-2.414 14.699-5.819m-1.082-8.093 5.196 19.504 19.566-5.592m2.585 7.558-14.966 5.072m17.44 2.138-68.215 16.084m11.185-23.294 24.177 53.972 3.032 10.741 31.708-3.692"/><path style="fill:none;stroke:#a0a09c;stroke-linecap:round;stroke-linejoin:round;stroke-miterlimit:10" d="m143.061 314.357-26.971 8.785-5.197 26.278 4.314 28.923"/><path style="fill:none;stroke:#a0a09c;stroke-linecap:round;stroke-linejoin:round;stroke-miterlimit:10" d="m70.422 372.828 36.357-5.262 44.581-2.011 15.249 8.771 17.779 19.819 77.089-2.941 109.79 4.136h63.318l28.978 3.609 23.709 7.283 17.088 10.382m-398.663-66.589-69.86 1.999-26.504-17.438-11.609 8.719m0-7.601 70.75-3.125"/><path style="fill:none;stroke:#a0a09c;stroke-linecap:round;stroke-linejoin:round;stroke-miterlimit:10" d="m43.754 310.06 16.996 22.86.554 10.385 7.924 7.763m-33.391-16.927 1.232 41.966m33.353-.703-34.585-23.38 7.917-7.37-1.311-10.513m18.307 4.025H42.945m18.359 5.139-17.55 1.349m-22.811-2.429-7.641 10.708 2.645 3.122m19.89-4.031-14.894 2.748-26.083 15.169m31.781 6.747-.047-13.462m11.461-78.7-11.461 5.858m17.16.957-16.301 8.589m21.638-2.201-12.022 8.44m-4.744 12.035v11.459m69.086-24.733 37.661-2.091m-7.592 63.613v-7.477l63.792-122.181m-82.885 122.642 19.093-.461m8.182-15.67 12.533-2.989"/><path style="fill:none;stroke:#a0a09c;stroke-linecap:round;stroke-linejoin:round;stroke-miterlimit:10" d="m165.429 293.951-25.767-39.729 58.388 45.708-34.196 7.447m2.755-61.21 6.069 33.901m13.715-26.27-17.44 5.462m30.245 20.808-20.826 4.458m20.244.786 19.857-.786m4.878 14.52-25.301.884m-.468 14.427 29.575-4.297m-30.034 19.446 35.378-4.192m-25.821 41.494-6.266-24.583.789-10.773M89.414 286.454l7.626-3.108m2.39 85.284 3.235 20.048m8.228-15.952-10.544 1.6m-24.989 1.729 15.106 16.188 4.93 15.802 5.651 27.677 33.136 17.005 16.039 4.853"/><path style="fill:none;stroke:#a0a09c;stroke-linecap:round;stroke-linejoin:round;stroke-miterlimit:10" d="M144.942 445.882h-7.537l-26.512-13.74h-10.544m.698 3.58-6.468 5.833-19.643 3.264-12.13 6.397-17.639 23.179m65.726-42.253 2.945-27.115-1.047-19.391m33.765 15.014-33.009-1.02m-23.682 56.675 7.847-11.486m-3.133-3.264 20.232 12.409m3.962-9.145-10.826 24.991m13.987 8.374 18.539-42.462M92.565 457.58 75.36 492.556"/><path style="fill:none;stroke:#a0a09c;stroke-linecap:round;stroke-linejoin:round;stroke-miterlimit:10" d="M95.474 501.729s-8.726-10.516-22.375-8.503-14.678-7.066-14.678-7.066l-1.93-6.401-61.631-29.197"/><path style="fill:none;stroke:#a0a09c;stroke-linecap:round;stroke-linejoin:round;stroke-miterlimit:10" d="m9.863 476.146 7.26-15.037 17.27-34.822-39.533 19.595m29.047-33.571L7.539 391.643l46.898-9.398m-15.348 76.574-11.737-18.335m134.131-65.39 1.893 17.734-14.807 61.136-8.907 31.453-8.459 20.138m52.654-1.812-6.806-29.712m-10.442 29.712 12.509-20.688m31.011-13.245-13.518 23.589m16.629-81.088-22.374 2.213-5.842 57.409m7.336-1.931 12.509-56.863m4.095 52.526 3.61-53.888m18.807 15.082-19.756-2.182m12.402 59.466 13.461-19.449m24.671 15.898-14.118 24.963m19.667-16.668-10.493 16.668m-93.839-85.103 21.012 8.777M392.59 395.34l2.592-33.847 40.178 4.062"/><path style="fill:none;stroke:#a0a09c;stroke-linecap:round;stroke-linejoin:round;stroke-miterlimit:10" d="m407.866 356.627-2.724 38.713-6.818 38.32-18.119-2.605m124.155-44.459-35.529-13.526-33.471-7.515-15.61-13.451-3.89 11.479m71.412 42.649 8.697-22.83m-86.861 64.175 4.712-21.522 20.589-2.313 23.619 4.783 46.332 11.444"/><path style="fill:none;stroke:#a0a09c;stroke-linecap:round;stroke-linejoin:round;stroke-miterlimit:10" d="m504.36 447.577-15.693-1.52-54.702-15.002-37.656-8.397m7.593 11.763 1.364-9.766m-53.869-16.559 26.83 3.045h43.496v-15.998"/><path style="fill:none;stroke:#a0a09c;stroke-linecap:round;stroke-linejoin:round;stroke-miterlimit:10" d="m452.86 229.598.785 13.074 2.325 41.45-3.07 8.058-2.509 12.862-2.479 30.429-2.69 7.017-9.862 23.067-.775 29.785-.62 35.715-1.126 23.356-.803 37.698m30.019-84.173-27.646-2.482m69.951 20.601-24.526-10.216-8.232 16.038"/><path style="fill:none;stroke:#a0a09c;stroke-linecap:round;stroke-linejoin:round;stroke-miterlimit:10" d="M421.723 425.168v-14.027l12.562 1.45m-56.058-1.45 21.491-15.998-1.704 15.998m26.452-60.819h17.407m-.762 1.782 28.9 8.404m1.091-6.507 13.071 2.626m-2.015-11.915-2.014 10.602m24.216-16.646-29.743-5.621m28.926 16.004-38.741-7.593-38.895-10.383-23.649-9.184m102.834-61.013-38.476-4.158m16.424 27.928 4.698-25.646"/><path style="fill:none;stroke:#a0a09c;stroke-linecap:round;stroke-linejoin:round;stroke-miterlimit:10" d="m472.877 267.531-9.348 50.063 11.674 11.958-13.148 78.384-10.201 52.153m2.247-209.292h-33.773l-3.099 27.436-5.114 19.526-8.058 16.58-7.128 24.329-2.894 13.436-8.308 13.037m-22.556 8.765 9.584-21.802m-33.71 0h80.705"/><path style="fill:none;stroke:#a0a09c;stroke-linecap:round;stroke-linejoin:round;stroke-miterlimit:10" d="m396.929 338.668 12.707 4.029 3.719 9.407m14.488-3.053-6.12-11.467 20.15-33.353m-32.237 38.466 12.087-5.113m0-8.133 5.096-18.873m-14.983 6.593-63.916-22.977-16.008 50.518m33.164 1.621-31.249-7.665m38.928 1.91-36.291-10.23"/><path style="fill:none;stroke:#a0a09c;stroke-linecap:round;stroke-linejoin:round;stroke-miterlimit:10" d="m375.079 321.891-32.977-9.336-31.936-9.091m58.848 39.876 2.86-10.293 22.161-65.594 4.804-1.457 9.027 30.423"/><path style="fill:none;stroke:#a0a09c;stroke-linecap:round;stroke-linejoin:round;stroke-miterlimit:10" d="m446.679 302.19-34.564-4.431-25.593-8.067-38.602-3.637-46.582-13.865-28.959-17.968-58.305-28.271"/><path style="fill:none;stroke:#a0a09c;stroke-linecap:round;stroke-linejoin:round;stroke-miterlimit:10" d="m207.053 246.167 17.713-5.852 5.19-6.663m12.54-12.44-9.603 13.864m-21.177 25.492 7.937-6.346 16.782-17.428 23.077-8.115"/><path style="fill:none;stroke:#a0a09c;stroke-linecap:round;stroke-linejoin:round;stroke-miterlimit:10" d="m224.766 240.315 5.19 3.74 21.816 11.343m-33.267-.258 31.399 10.856m-27.926 29.026 26.238-5.011m-32.206-13.35 24.831-8.19 48.922 17.584m-26.101 11.674 5.838-23.06m-5.838 2.004 2.919-7.118"/><path style="fill:none;stroke:#a0a09c;stroke-linecap:round;stroke-linejoin:round;stroke-miterlimit:10" d="m252.886 330.348 8.303-13.125 36.355-41.314 19.931-23.146"/><path style="fill:none;stroke:#a0a09c;stroke-linecap:round;stroke-linejoin:round;stroke-miterlimit:10" d="m279.115 346.35 3.452-31.993 9.296-24.972 3.836-11.379m-14.588 48.11h-4.576v5.336m40.94-6.138-5.634 22.961 1.256 44.874"/><path style="fill:none;stroke:#a0a09c;stroke-linecap:round;stroke-linejoin:round;stroke-miterlimit:10" d="m259.969 385.389-24.872-.754 22.118-10.729 83.998 4.437"/><path style="fill:none;stroke:#a0a09c;stroke-linecap:round;stroke-linejoin:round;stroke-miterlimit:10" d="m315.969 331.452-20.27-8.847-2.456 25.406-2.69 27.656 1.594 43.134-6.966 27.595 1.162 19.269-12.253 38.078m8.616-2.324 3.446-5.913 6.126 1.715-2.489 6.522"/><path style="fill:none;stroke:#a0a09c;stroke-linecap:round;stroke-linejoin:round;stroke-miterlimit:10" d="m298.411 443.051.951 27.736-10.714 25.418"/><path style="fill:none;stroke:#a0a09c;stroke-linecap:round;stroke-linejoin:round;stroke-miterlimit:10" d="m295.03 494.305 4.332-10.162-.833-11.381m-18.383 12.163-4.111-21.514 23-2.14m-20.945 12.76-9.552 9.959m37.902 7.665 17.195 2.65L339.289 500m19.785-11.915L355.536 500m7.635 3.743 14.904-52.286m-27.866 15.602 21.432 6.972m-37.814-7.389 5.462 1.663 35.989-7.034-37.781-4.966-14.811-4.848m17.091-1.734-15.124-5.349m-5.293-6.619-8.309 22.126 8.309 1.39 8-25.539m-30.164-15.899 12 20.492 6.773-16.639 6.717-30.176 7.691-31.284m-4.212 0 4.212-15.876m3.45 16.655 3.621-12.683"/><path style="fill:none;stroke:#a0a09c;stroke-linecap:round;stroke-linejoin:round;stroke-miterlimit:10" d="m302.904 397.701-1.285 11.188 16.69 4.285m1.537-6.906 29.834 10.141m-14.042 11.548 6.464-33.715-2.255-11.194m-65.757 8.632v13.758h7.021v-13.494m-38.123-32.969 5.053 20.672-2.425 13.502v15.906l-15.082 51.157 35.447 22.843m-37.457-90.594v13.807m43.965 27.392-27.191-23.528m167.07 38.37-10.198 26.497-23.054-7.94m-.889-18.475 30.354 9.757m12.155-7.446-10.142 27.42-6.692 25.428m-22.471-24.732 26.324 10.092m-24.812-4.178 23.512 9.118m21.405 0-7.946-11.96m-9.32-3.768 21.442 7.405m21.723 5.935 27.863 13.9m-6.419 0 8.835-29.409 20.322 7.911m-72.324-5.046 22.065-1.411 23.729-9.295m-10.14-3.292 16.228-20.258m4.063 21.055 7.988-19.046m-31.578 4.131v13.074m-9.458-2.939-.832 16.57m-8.022-19.259v19.974m-3.513-22.028-1.455 22.144m-3.905-22.144v22.393m-3.829-16.93 16.483 6.578 25.48-.844m29.02 22-22.398-6.429m-142.673-14.75-.518 14.75-72.238 1.87m65.886-14.38 15.158 4.454m-173.144-91.951h19.808m93.166-142.733-7.324 18.687 32.194-.203 7.87 18.464-12.798 33.594-31.594-9.234-27.51-9.107m96.738 10.948-30.647-10.948m33.584 1.678 1.532-8.139m-.766-28.123 5.923 16.045m64.613-14.162-71.302 21.623m5.169-1.568 5.431-17.955-2.146-6.517m-.489 15.228 14.885-3.095m-3.817-8.732-8.433 3.116m-44.734-4.869 9.64 7.025v9.043l-3.279 4.149m6.018 2.317 2.106-6.466 20.092 4.892m-3.842-10.475-16.25-4.084v-7.07m27.533 49.189 4.483 8.791 15.553-10.126m-20.036 19.906-6.352 27.967m43.138-54.114 10.434 4.2m-.766-7.538-2.398 6.265m17.369-22.684 38.741 5.889m-27.76 15.968 3.826-19.606m-18.061 8.412 15.55 4.456m23.375 6.152 20.733 3.96 7.518-1.98 2.685-15.512m14.679 3.565-5.98 16.986-11.384-5.039m-85.54-58.616 5.448 19.047 12.916-16.081 6.287.731 1.488-10.618m-173.534 45.491 18.365 4.617m-28.251 5.66-1.775-12.135m5.941 2.717-11.377 1.049m53.036 7.778-11.494-1.113m-36.106 45.46s4.506-1.933 5.942-.008c0 0 1.639-5.601 7.114-2.734 0 0 .856-1.276 4.286-1.276h26.827m-39.883 16.598 16.207-5.354m-14.552-7.234 3.494 10.887m3.62-13.622 3.276 11.344m2.883-164.472-8.389 8.386-35.663-36.964s-2.028-2.878 2.349-6.667 6.914-.547 6.914-.547zm-44.053-28.578-8.331-.278m16.943-7.52.651-20.917m19.026 11.547-25.697 25.473"/><path style="fill:none;stroke:#a0a09c;stroke-linecap:round;stroke-linejoin:round;stroke-miterlimit:10" d="m241.665 195.708-23.952-23.113 17.393-17.278s4.614-3.235 7.654-4.434 6.93-1.749 6.322-5.122-10.525-10.471-10.525-10.471"/><path style="fill:none;stroke:#a0a09c;stroke-linecap:round;stroke-linejoin:round;stroke-miterlimit:10" d="m229.238 161.145 18.628 18.455-4.071 4.671m-1.974-19.02-8.313 8.357m10.467 18.879-22.996-22.968"/><path style="fill:none;stroke:#a0a09c;stroke-linecap:round;stroke-linejoin:round;stroke-miterlimit:10" d="m220.328 165.499-13.643-14.755 14.294-25.47 15.632 11.945 16.458 40.145-7.996 8.232m-5.068 11.871-15.994-15.684"/><path style="fill:none;stroke:#a0a09c;stroke-linecap:round;stroke-linejoin:round;stroke-miterlimit:10" d="m250.284 170.572 3.198-1.053-1.599-8.374"/><path style="fill:none;stroke:#686866;stroke-width:3;stroke-linecap:round;stroke-linejoin:round;stroke-miterlimit:10" d="M-5.14-6.945s36.5 44.5 59 61.5 101 83 108 92 18 15.5 21 21 29 96 34.5 113.5 22.5 65 22.5 65 5 12 12.5 10c0 0 8.957-.5 3.478-18-5.478-17.5-15.674-57.253 3.674-109.376 0 0 26.639 54.376 34.993 64.376s32.355 48 38.855 53 10.5 14.5 16 21 7 15 17 23 17 28.5 12.5 53.5 11 62 11 62m29.362-476.492s-4.362 22.492-12.362 35.992-18.865 47.711-19.432 64.355M232.371 60.089 261.9 178.555s-2.54-19.5 3.96-31.5 21.425-53.415 21.425-53.415M182.86 167.555l35.5-172m-50.5 0s5.896 37.5 57.448 28 137.052-28 137.052-28m-34.217 7.294-11.955 28.744"/><path style="fill:none;stroke:#686866;stroke-width:3;stroke-linecap:round;stroke-linejoin:round;stroke-miterlimit:10" d="M151.36-4.445s-46.762 109.87-100.494 170.489M-5.14 233.055s117.5 139.5 121.5 147 40.5 97.211 45 98.105 20.833-24.605 20.833-24.605"/><path style="fill:none;stroke:#686866;stroke-width:3;stroke-linecap:round;stroke-linejoin:round;stroke-miterlimit:10" d="M154.416 466.464s10.23-22.409 17.587-18.409 30.661 12.469 45.509 28.734 23.279 28.766 23.279 28.766"/><path style="fill:none;stroke:#686866;stroke-width:3;stroke-linecap:round;stroke-linejoin:round;stroke-miterlimit:10" d="m345.86 431.055-140.055 35.409-44.445 11.697-11.138 27.394m134.959-59.159-21.222 29.75"/><path style="fill:none;stroke:#686866;stroke-width:3;stroke-linecap:round;stroke-linejoin:round;stroke-miterlimit:10" d="M-5.14 379.055s61-5.5 80.5-3 226 44.5 252 50 152.5 40.02 177 52.26"/><path style="fill:none;stroke:#686866;stroke-width:3;stroke-linecap:round;stroke-linejoin:round;stroke-miterlimit:10" d="M-5.14 426.859s20.5-12.304 38-17.804 70.623-20.253 85.312-25.126 43.219-8.874 60.704-11.374 64.484-15 73.484-16.5c0 0 4.87.105 4.978-5.397 0 0 11.679-7.103 33.1-3.103s37.198-4.194 45.56.903"/><path style="fill:none;stroke:#686866;stroke-width:3;stroke-linecap:round;stroke-linejoin:round;stroke-miterlimit:10" d="m257.215 447.577-59.789-47.947s-5.821-21.295-2.694-30.685 2.092-103.89 8.36-135.89m-122.732 37.5s16 30.5 32.5 49 36.5 38 38.5 46-11.857 67.938-11.857 67.938l29.353 14.084M-5.14 407.055s22.5 9 36.5 17.5 41.5 17 50 24.5 28 24 44.5 30.5 42.5 19 49.5 26"/><path style="fill:none;stroke:#686866;stroke-width:3;stroke-linecap:round;stroke-linejoin:round;stroke-miterlimit:10" d="M46.36 505.555s27.151-39.472 28.576-60.736c1.424-21.264-5.076-68.135-5.576-89.2s-3.916-81.667-3.916-81.667M355.536 376.89s-1.676 27.665-9.676 54.165-26.5 74.5-26.5 74.5m41.667-71.134-23.579 71.134m68.412 0s32-16.5 44-22.5m-24.75 22.5s41.881-19.809 65.315-32.904m-104.024 23.554-127.429-37.864m51.631-18.372s4.274 29.586-8.984 65.586m-68.269-10.049 24.532-41.542m-60.455-54.334-22.067 50.093"/><path style="fill:none;stroke:#686866;stroke-width:3;stroke-linecap:round;stroke-linejoin:round;stroke-miterlimit:10" d="M38.055 428.173s54.463-26.045 89.134-23.332 65.171 6.29 65.171 6.29"/><path style="fill:none;stroke:#686866;stroke-width:3;stroke-linecap:round;stroke-linejoin:round;stroke-miterlimit:10" d="M-5.14 483.055s40.5-17.182 49-29.091 15.779-29.703 14.39-38.556c-1.39-8.853-4.39-30.656-3.89-40.005m221.738 72.174-23.738-91.522 130.229 10.301"/><path style="fill:none;stroke:#686866;stroke-width:3;stroke-linecap:round;stroke-linejoin:round;stroke-miterlimit:10" d="m327.36 426.055 18.5-63.719s28.93-26.781 59.965-42.281 89.535-33.5 98.535-55m-509.5-73s39.011-17.022 56.006-26.011"/><path style="fill:none;stroke:#222221;stroke-width:3;stroke-linecap:round;stroke-linejoin:round;stroke-miterlimit:10" d="M504.36 312.555s-16 14-68.5 33.5-158.641 61.5-166.57 65.5-14.174 30.379-11.408 42.409 14.843 51.591 14.843 51.591m-277.865-345s49.5-13 78 23.5 51.124 74.675 51.124 74.675 28.376 83.825 35.376 100.825 16.5 25.5 11 38.5-12 43.5-12 43.5"/><path style="fill:none;stroke:#222221;stroke-width:3;stroke-linecap:round;stroke-linejoin:round;stroke-miterlimit:10" d="M-5.14 244.055s66.5 21 86.5 29 74.785 37 90.643 44.5 80.357 38.5 80.357 38.5l24.033 92.563 8.788-2.222-21.221 29.75M225.308 215.87s31.631-29.315 36.591-37.315 16.96-46 28.46-47.5 81.5-8 89.5-5 46.5 23 56.5 24 55.5-1 68-3"/><path style="fill:none;stroke:#222221;stroke-width:4;stroke-linecap:round;stroke-linejoin:round;stroke-miterlimit:10" d="M-5.14 286.055s53.5-7.5 85.5-15.5 115.438-32 124.969-38 15.437-17.5 22.484-17 101.547 47.5 117.047 43.5 85.5-33 159.5-34.5M-4.096 382.245l11.635 9.398-1.566 112.1M-5.14 77.055s44-27.5 69-41 71-43 71-43"/><path style="fill:none;stroke:#222221;stroke-width:4;stroke-linecap:round;stroke-linejoin:round;stroke-miterlimit:10" d="M414.86 21.914s-45 1.141-61.5.141-24 3.5-33.5 8-74.5 26-103 35-105.398 36.63-105.398 36.63L44.706 46.887 0 0"/><path style="fill:none;stroke:#222221;stroke-width:4;stroke-linecap:round;stroke-linejoin:round;stroke-miterlimit:10" d="M399.86-4.445s51 87 53 97-2 126.586 0 137.043 51.5 89.957 51.5 89.957"/></g><path style="fill:#1d262d" d="M260.104 465.465a7.5 7.5 0 0 0-1.108 1.453l-.465-.241a.605.605 0 0 0-1.188.204.603.603 0 0 0 .854.476l.451.234a7.3 7.3 0 0 0-.539 1.743l.747.132a6.6 6.6 0 0 1 1.792-3.473zm5.488-2.301q-.257 0-.509.017l-.074-.626a.716.716 0 1 0-.753.086l.073.624a7.6 7.6 0 0 0-2.06.646l.327.685a6.9 6.9 0 0 1 2.995-.674c.497 0 .993.053 1.476.158l.16-.741a7.7 7.7 0 0 0-1.635-.175m6.602 2.547a.602.602 0 1 0-.147-1.197.603.603 0 0 0-.53.608l-.416.363a7.7 7.7 0 0 0-1.407-1.14l-.404.642a6.75 6.75 0 0 1 2.564 2.925l.69-.313a7.4 7.4 0 0 0-.942-1.545l.402-.351a.6.6 0 0 0 .19.008m-7.149 7.661c-.386.023-.775.035-1.157.035-.88 0-1.733-.061-2.478-.18a8.5 8.5 0 0 1-1.271-.292 6.17 6.17 0 0 0 5.389 3.125c2.855 0 5.263-1.916 5.949-4.503-.682.449-1.505.825-2.458 1.122-1.18.368-2.555.608-3.974.693"/><path style="fill:#1d262d" d="M265.592 464.68c-3.352 0-6.079 2.666-6.079 5.943 0 .425.046.849.137 1.261.674.483 2.706.891 5.348.731 2.88-.174 5.297-.958 6.672-2.159a6 6 0 0 0-.045-.581c-.381-2.961-2.975-5.195-6.033-5.195m-2.16 6.515c-1.02 0-1.85-.83-1.85-1.85s.83-1.851 1.85-1.851 1.85.83 1.85 1.851-.83 1.85-1.85 1.85m4.738-.908c-.75 0-1.36-.61-1.36-1.36s.61-1.36 1.36-1.36 1.36.61 1.36 1.36-.61 1.36-1.36 1.36m13.426-3.74c-.295-.116-.806-.31-1.383-.238-.551.069-.844.341-.844 1.007v.866h2.229v1.717h-2.229v5.455h-1.932v-5.455h-1.339v-1.717h1.339v-.889c0-1.68.896-2.782 2.568-2.782a3.9 3.9 0 0 1 1.59.308v1.728zm4.702 3.331a3.3 3.3 0 0 0-.525-.046c-.895 0-1.51.548-1.51 1.613v3.908h-1.933v-7.172h1.873v.784c.451-.673 1.14-.977 2.02-.977.414 0 .848.128 1.095.337zm7.668 1.879c0 .222-.016.488-.037.651h-5.085c.207 1.036.933 1.487 1.843 1.487.622 0 1.295-.252 1.813-.689l1.133 1.243c-.814.748-1.851 1.089-3.057 1.089-2.198 0-3.724-1.496-3.724-3.753s1.48-3.797 3.627-3.797c2.065.002 3.479 1.534 3.487 3.769m-5.115-.666h3.175c-.178-.918-.732-1.437-1.562-1.437-.909.001-1.443.549-1.613 1.437m12.768.666c0 .222-.016.488-.037.651h-5.085c.207 1.036.933 1.487 1.843 1.487.622 0 1.296-.252 1.814-.689l1.133 1.243c-.814.748-1.851 1.089-3.058 1.089-2.198 0-3.723-1.496-3.723-3.753s1.481-3.797 3.627-3.797c2.064.002 3.478 1.534 3.486 3.769m-5.114-.666h3.175c-.178-.918-.733-1.437-1.562-1.437-.91.001-1.443.549-1.613 1.437m13.46.673c0 2.154-1.495 3.775-3.472 3.775-.962 0-1.643-.378-2.109-.933v3.708h-1.925v-10.133h1.888v.792c.467-.585 1.154-.984 2.139-.984 1.984.001 3.479 1.622 3.479 3.775m-5.678 0c0 1.133.748 1.977 1.844 1.977 1.14 0 1.85-.881 1.85-1.977 0-1.095-.71-1.976-1.85-1.976-1.096.001-1.844.844-1.844 1.976m8.781-5.928c0 .696-.541 1.229-1.236 1.229a1.207 1.207 0 0 1-1.228-1.229 1.22 1.22 0 0 1 1.228-1.243 1.225 1.225 0 0 1 1.236 1.243m-.26 9.518h-1.932v-7.172h1.932zm3.224-4.618 2.702-2.554h2.368l-3.478 3.375 3.501 3.797h-2.376l-2.717-2.901v2.901H314.1v-10.658h1.932zm-131.62 4.554v-1.055c-.527.718-1.391 1.23-2.387 1.23-1.846 0-3.149-1.406-3.149-3.706 0-2.256 1.289-3.721 3.149-3.721.952 0 1.816.469 2.387 1.245v-3.765h1.099v9.771zm0-1.919v-3.208c-.395-.615-1.245-1.143-2.124-1.143-1.42 0-2.27 1.172-2.27 2.739s.85 2.725 2.27 2.725c.88 0 1.729-.498 2.124-1.113m2.52-1.626c0-2.051 1.465-3.706 3.486-3.706 2.139 0 3.398 1.67 3.398 3.794v.278h-5.727c.088 1.333 1.025 2.446 2.549 2.446.806 0 1.626-.322 2.182-.894l.527.718c-.703.703-1.655 1.084-2.812 1.084-2.094 0-3.603-1.508-3.603-3.72m3.472-2.798c-1.509 0-2.256 1.274-2.314 2.358h4.644c-.016-1.055-.719-2.358-2.33-2.358m4.203 5.405.571-.791c.469.542 1.362 1.011 2.329 1.011 1.084 0 1.67-.513 1.67-1.216 0-1.714-4.38-.659-4.38-3.281 0-1.099.952-2.036 2.636-2.036 1.202 0 2.051.454 2.623 1.025l-.513.762c-.424-.513-1.201-.894-2.109-.894-.966 0-1.567.483-1.567 1.113 0 1.553 4.379.527 4.379 3.281 0 1.187-.952 2.139-2.783 2.139-1.157 0-2.138-.351-2.856-1.113m6.87-7.881c0-.41.337-.747.732-.747a.75.75 0 0 1 .747.747c0 .41-.337.732-.747.732a.734.734 0 0 1-.732-.732m.19 8.819v-7.075h1.099v7.075zm2.915 1.816.556-.82c.586.703 1.289.967 2.3.967 1.172 0 2.27-.571 2.27-2.124v-1.011c-.513.718-1.377 1.26-2.373 1.26-1.846 0-3.149-1.377-3.149-3.662 0-2.271 1.289-3.677 3.149-3.677.952 0 1.802.469 2.373 1.245v-1.069h1.099v6.87c0 2.344-1.641 3.076-3.369 3.076-1.201 0-2.021-.236-2.856-1.055m5.127-3.853v-3.091c-.381-.615-1.23-1.143-2.109-1.143-1.421 0-2.27 1.128-2.27 2.695 0 1.553.849 2.695 2.27 2.695.878.002 1.728-.54 2.109-1.156m7.704 2.037v-4.629c0-1.245-.63-1.641-1.582-1.641-.864 0-1.685.527-2.094 1.099v5.171h-1.099v-7.075h1.099v1.025c.497-.586 1.464-1.201 2.519-1.201 1.479 0 2.256.747 2.256 2.285v4.966zm2.519-3.545c0-2.051 1.465-3.706 3.486-3.706 2.139 0 3.398 1.67 3.398 3.794v.278h-5.727c.088 1.333 1.025 2.446 2.548 2.446.806 0 1.626-.322 2.183-.894l.527.718c-.703.703-1.655 1.084-2.813 1.084-2.092 0-3.602-1.508-3.602-3.72m3.472-2.798c-1.509 0-2.256 1.274-2.314 2.358h4.643c-.014-1.055-.718-2.358-2.329-2.358m9.946 6.343v-1.055c-.527.718-1.392 1.23-2.388 1.23-1.845 0-3.149-1.406-3.149-3.706 0-2.256 1.289-3.721 3.149-3.721.952 0 1.817.469 2.388 1.245v-3.765h1.098v9.771zm0-1.919v-3.208c-.396-.615-1.245-1.143-2.124-1.143-1.421 0-2.271 1.172-2.271 2.739s.85 2.725 2.271 2.725c.879 0 1.728-.498 2.124-1.113m6.342 1.919v-9.771h1.099v3.765c.571-.776 1.421-1.245 2.388-1.245 1.845 0 3.149 1.465 3.149 3.721 0 2.3-1.304 3.706-3.149 3.706-.996 0-1.86-.513-2.388-1.23v1.055zm3.208-.806c1.436 0 2.285-1.157 2.285-2.725 0-1.567-.85-2.739-2.285-2.739-.864 0-1.729.527-2.109 1.143v3.208c.381.615 1.245 1.113 2.109 1.113m4.629 2.578c.161.073.425.117.601.117.483 0 .806-.161 1.055-.747l.469-1.069-2.959-7.148h1.187l2.358 5.801 2.344-5.801h1.2l-3.545 8.511c-.425 1.024-1.143 1.421-2.08 1.436a3.5 3.5 0 0 1-.806-.104z"/></svg>